<svg width="24" height="24" viewBox="0 0 24 24" fill="none" xmlns="http://www.w3.org/2000/svg">
<path d="M23.5312 16.1953H21.2578V14.6953C21.2578 13.6283 20.5034 12.7343 19.5 12.5184V5.67188H20.7891C21.048 5.67188 21.2578 5.46197 21.2578 5.20312V1.6875C21.2578 1.42866 21.048 1.21875 20.7891 1.21875H17.2734C17.0145 1.21875 16.8047 1.42866 16.8047 1.6875V5.20312C16.8047 5.46197 17.0145 5.67188 17.2734 5.67188H18.5625V12.5184C17.5591 12.7343 16.8047 13.6283 16.8047 14.6953V16.1953H14.2266V14.6953C14.2266 13.6283 13.4722 12.7343 12.4688 12.5184V5.67188H13.7578C14.0167 5.67188 14.2266 5.46197 14.2266 5.20312V1.6875C14.2266 1.42866 14.0167 1.21875 13.7578 1.21875H10.2422C9.9833 1.21875 9.77344 1.42866 9.77344 1.6875V5.20312C9.77344 5.46197 9.9833 5.67188 10.2422 5.67188H11.5312V12.5184C10.5278 12.7343 9.77344 13.6283 9.77344 14.6953V16.1953H7.19531V14.6953C7.19531 13.6283 6.44091 12.7343 5.4375 12.5184V5.67188H6.72656C6.98545 5.67188 7.19531 5.46197 7.19531 5.20312V1.6875C7.19531 1.42866 6.98545 1.21875 6.72656 1.21875H3.21094C2.95205 1.21875 2.74219 1.42866 2.74219 1.6875V5.20312C2.74219 5.46197 2.95205 5.67188 3.21094 5.67188H4.5V12.5184C3.49659 12.7343 2.74219 13.6283 2.74219 14.6953V16.1953H0.46875C0.209859 16.1953 0 16.4052 0 16.664V19.7109C0 19.9697 0.209859 20.1796 0.46875 20.1796H2.74219V20.5547C2.74219 21.7824 3.741 22.7812 4.96875 22.7812C6.19645 22.7812 7.19531 21.7824 7.19531 20.5547V20.1796H9.77344V20.5547C9.77344 21.7824 10.7723 22.7812 12 22.7812C13.2277 22.7812 14.2266 21.7824 14.2266 20.5547V20.1796H16.8047V20.5547C16.8047 21.7824 17.8035 22.7812 19.0312 22.7812C20.259 22.7812 21.2578 21.7824 21.2578 20.5547V20.1796H23.5312C23.7901 20.1796 24 19.9697 24 19.7109V16.664C24 16.4052 23.7901 16.1953 23.5312 16.1953ZM17.7422 2.15625H20.3203V4.73438H17.7422V2.15625ZM10.7109 2.15625H13.2891V4.73438H10.7109V2.15625ZM3.67969 2.15625H6.25781V4.73438H3.67969V2.15625ZM0.9375 19.2421V17.1328H2.74219V19.2421H0.9375ZM6.25777 20.5547C6.25777 21.2655 5.67952 21.8437 4.9687 21.8437C4.25794 21.8437 3.67964 21.2655 3.67964 20.5547V14.6953C3.67964 13.9845 4.25789 13.4062 4.9687 13.4062C5.67947 13.4062 6.25777 13.9845 6.25777 14.6953V20.5547ZM7.19527 19.2421V17.1328H9.77339V19.2421H7.19527ZM13.2891 20.5547C13.2891 21.2655 12.7108 21.8437 12 21.8437C11.2892 21.8437 10.7109 21.2655 10.7109 20.5547V14.6953C10.7109 13.9845 11.2892 13.4062 12 13.4062C12.7108 13.4062 13.2891 13.9845 13.2891 14.6953V20.5547ZM14.2266 19.2421V17.1328H16.8047V19.2421H14.2266ZM20.3203 20.5547C20.3203 21.2655 19.7421 21.8437 19.0312 21.8437C18.3204 21.8437 17.7422 21.2655 17.7422 20.5547V14.6953C17.7422 13.9845 18.3204 13.4062 19.0312 13.4062C19.7421 13.4062 20.3203 13.9845 20.3203 14.6953V20.5547ZM23.0625 19.2421H21.2578V17.1328H23.0625V19.2421Z" fill="black"/>
</svg>
