<svg width="24" height="24" viewBox="0 0 24 24" fill="none" xmlns="http://www.w3.org/2000/svg">
<rect width="24" height="24" />
<path d="M9.56335 6.94879H17.2265V10.6325H18.8503V9.02334H20.4936V14.4705H18.8503V12.8614H17.2265V14.0373L14.2886 16.7819C14.1034 16.955 13.8594 17.0512 13.606 17.0512H10.0226C9.73105 17.0512 9.45406 16.924 9.26409 16.7029L7.56335 14.7236H5.94612C5.39384 14.7236 4.94612 14.2759 4.94612 13.7236V10.2764C4.94612 9.72412 5.39384 9.27641 5.94612 9.27641H7.56335L9.56335 6.94879Z" stroke="black" stroke-linejoin="round"/>
<path d="M1.71878 14.7236H3.36209L3.36209 13.1144H4.94043V10.8856L3.36209 10.8856L3.36209 9.27641L1.71878 9.27641L1.71878 14.7236Z" stroke="currentColor" stroke-linejoin="round"/>
<path d="M10.4168 4.93906L9.91681 4.93906C9.91681 5.2152 10.1407 5.43906 10.4168 5.43906L10.4168 4.93906ZM10.4168 3.29575L10.4168 2.79575C10.1407 2.79575 9.91681 3.0196 9.91681 3.29575L10.4168 3.29575ZM12.026 4.93906L12.526 4.93906C12.526 4.66291 12.3021 4.43906 12.026 4.43906L12.026 4.93906ZM12.026 6.94879L11.526 6.94879C11.526 7.22493 11.7498 7.44879 12.026 7.44879L12.026 6.94879ZM14.2548 6.94879L14.2548 7.44879C14.531 7.44879 14.7548 7.22493 14.7548 6.94879L14.2548 6.94879ZM14.2548 4.93906L14.2548 4.43906C13.9787 4.43906 13.7548 4.66291 13.7548 4.93906L14.2548 4.93906ZM15.864 4.93906L15.864 5.43906C16.1401 5.43906 16.364 5.2152 16.364 4.93906L15.864 4.93906ZM15.864 3.29575L16.364 3.29575C16.364 3.0196 16.1401 2.79575 15.864 2.79575L15.864 3.29575ZM10.9168 4.93906L10.9168 3.29575L9.91681 3.29575L9.91681 4.93906L10.9168 4.93906ZM12.026 4.43906L10.4168 4.43906L10.4168 5.43906L12.026 5.43906L12.026 4.43906ZM12.526 6.94879L12.526 4.93906L11.526 4.93906L11.526 6.94879L12.526 6.94879ZM14.2548 6.44879L12.026 6.44879L12.026 7.44879L14.2548 7.44879L14.2548 6.44879ZM13.7548 4.93906L13.7548 6.94879L14.7548 6.94879L14.7548 4.93906L13.7548 4.93906ZM15.864 4.43906L14.2548 4.43906L14.2548 5.43906L15.864 5.43906L15.864 4.43906ZM15.364 3.29575L15.364 4.93906L16.364 4.93906L16.364 3.29575L15.364 3.29575ZM10.4168 3.79575L15.864 3.79575L15.864 2.79575L10.4168 2.79575L10.4168 3.79575Z" fill="currentColor"/>
</svg>
