<svg width="24" height="24" viewBox="0 0 24 24" fill="none" xmlns="http://www.w3.org/2000/svg">
<g clip-path="url(#clip0_18_96)">
<path d="M14.5498 8.45401L15.5442 7.45966L16.5385 8.45401L15.5442 9.44836L14.5498 8.45401Z" fill="black"/>
<path d="M16.0437 0L8.08769 7.95601L9.08219 8.95051C9.34782 8.68488 9.70102 8.53861 10.0767 8.53861C10.4523 8.53861 10.8056 8.68488 11.0712 8.95051L11.5685 9.44778L6.06021 14.956C5.6342 15.382 5.05484 15.6065 4.46859 15.5714L4.46845 15.5736C3.30579 15.5048 2.11992 15.9127 1.23358 16.7992C-0.411531 18.4443 -0.411531 21.1211 1.23358 22.7662C2.05612 23.5888 3.13664 24 4.21712 24C5.29759 24 6.37812 23.5888 7.20065 22.7662C8.08601 21.8808 8.49406 20.6967 8.42646 19.5354L8.42862 19.5352C8.39411 18.9466 8.62369 18.3597 9.05851 17.9248L14.552 12.4313L15.0493 12.9285C15.3149 13.1942 15.4612 13.5474 15.4612 13.923C15.4612 14.2987 15.3149 14.6519 15.0493 14.9175L16.0438 15.912L23.9998 7.95601L16.0437 0ZM22.0108 7.95601L21.0163 8.95051L15.0492 2.98349L16.0437 1.98894L22.0108 7.95601ZM6.20616 21.7716C5.10936 22.8684 3.32487 22.8684 2.22808 21.7716C1.13134 20.6748 1.13134 18.8903 2.22808 17.7936C2.77645 17.2452 3.49679 16.971 4.21712 16.971C4.93745 16.971 5.65774 17.2452 6.20616 17.7936C7.30285 18.8903 7.30285 20.6749 6.20616 21.7716ZM8.06402 16.9303C7.92389 17.0704 7.79717 17.2207 7.68362 17.3787C7.54223 17.175 7.38204 16.9805 7.20065 16.7991C7.01978 16.6182 6.82588 16.4585 6.62284 16.3174C6.77501 16.2075 6.91983 16.0854 7.05471 15.9505L12.5629 10.4423L13.5574 11.4368L8.06402 16.9303ZM16.0437 11.9341L12.0656 7.95601C11.7108 7.60121 11.2779 7.35283 10.8057 7.227L14.0547 3.97798L20.0217 9.945L16.7727 13.194C16.6469 12.7218 16.3985 12.2889 16.0437 11.9341Z" fill="black"/>
</g>
<defs>
<clipPath id="clip0_18_96">
<rect width="24" height="24" fill="white"/>
</clipPath>
</defs>
</svg>
