<svg width="24" height="24" viewBox="0 0 24 24" fill="none" xmlns="http://www.w3.org/2000/svg">
<path d="M20.7073 7.53057C20.4484 7.53057 20.2385 7.74048 20.2385 7.99932V10.8252H19.2934V10.3527C19.2934 9.31562 18.4497 8.47191 17.4126 8.47191H15.3767L14.5532 6.4133C14.482 6.23532 14.3097 6.11865 14.118 6.11865H12.4688V4.23212H13.8826C14.1415 4.23212 14.3514 4.02221 14.3514 3.76337C14.3514 3.50452 14.1415 3.29462 13.8826 3.29462H8.23472C7.97587 3.29462 7.76597 3.50452 7.76597 3.76337C7.76597 4.02221 7.97587 4.23212 8.23472 4.23212H9.64861V6.11865H7.52869C7.38112 6.11865 7.24223 6.18807 7.15369 6.30615L5.88234 8.00124H3.76336C2.72634 8.00124 1.88264 8.84494 1.88264 9.88201V12.4726H0.9375V10.1173C0.9375 9.85848 0.727641 9.64857 0.46875 9.64857C0.209859 9.64857 0 9.85848 0 10.1173V15.7653C0 16.0241 0.209859 16.234 0.46875 16.234C0.727641 16.234 0.9375 16.0241 0.9375 15.7653V13.4101H1.88264V16.942C1.88264 17.979 2.72634 18.8227 3.76336 18.8227H5.88234L7.15369 20.5179C7.24223 20.6359 7.38112 20.7054 7.52869 20.7054H14.118C14.2955 20.7054 14.4578 20.6051 14.5372 20.4463L15.349 18.8227H17.4126C18.4496 18.8227 19.2933 17.979 19.2933 16.942V16.4694H20.2385V19.2953C20.2385 19.5541 20.4483 19.7641 20.7072 19.7641C22.5228 19.7641 24 18.2869 24 16.4713V10.8234C24 9.00774 22.5229 7.53057 20.7073 7.53057ZM10.5861 4.23212H11.5312V6.11865H10.5861V4.23212ZM23.0625 16.4713C23.0625 17.6095 22.2509 18.5618 21.176 18.7797V16.0006C21.176 15.7418 20.9661 15.5319 20.7073 15.5319H18.8246C18.5658 15.5319 18.3559 15.7418 18.3559 16.0006V16.942C18.3559 17.4621 17.9327 17.8852 17.4126 17.8852H15.0593C14.8818 17.8852 14.7195 17.9855 14.6401 18.1443L13.8283 19.7679H7.76306L6.49172 18.0727C6.40317 17.9547 6.26423 17.8852 6.11672 17.8852H3.76336C3.24323 17.8852 2.82014 17.4621 2.82014 16.942V9.88201C2.82014 9.36188 3.24323 8.93874 3.76336 8.93874H6.11672C6.26423 8.93874 6.40317 8.86927 6.49172 8.75124L7.76306 7.05615H13.8006L14.6241 9.11476C14.6953 9.29274 14.8676 9.40941 15.0593 9.40941H17.4126C17.9327 9.40941 18.3558 9.83255 18.3558 10.3527V11.294C18.3558 11.5528 18.5657 11.7627 18.8246 11.7627H20.7072C20.9661 11.7627 21.176 11.5528 21.176 11.294V8.51494C22.2509 8.73287 23.0625 9.68509 23.0625 10.8234V16.4713Z" fill="black"/>
<path d="M14.0709 12.2029H12.2334V8.46999C12.2334 8.00653 11.6293 7.82522 11.3738 8.21128L7.65558 13.8296C7.56024 13.9736 7.55185 14.1585 7.63374 14.3106C7.77282 14.5688 8.04258 14.5557 8.04727 14.5571L10.1992 14.5533L9.58116 18.207C9.49861 18.6954 10.1366 18.9592 10.4242 18.5584L14.4518 12.9448C14.5543 12.802 14.5682 12.6139 14.488 12.4575C14.4077 12.3012 14.2467 12.2029 14.0709 12.2029ZM10.8434 16.366L11.2163 14.1618C11.2393 14.0257 11.2011 13.8862 11.1118 13.7808C10.9592 13.6005 10.758 13.616 10.7532 13.6149L8.91975 13.6181L11.2959 10.0276V12.6716C11.2959 12.9305 11.5058 13.1404 11.7646 13.1404H13.1577L10.8434 16.366Z" fill="black"/>
</svg>
